<svg xmlns="http://www.w3.org/2000/svg" width="114" height="28" fill="none" style=""><rect id="backgroundrect" width="100%" height="100%" x="0" y="0" fill="none" stroke="none" style="" class=""/>





<g class="currentLayer" style=""><title>Layer 1</title><rect x="0" y="13.019760847091675" width="32" height="1.5433399677276611" rx="0.7716720104217529" fill="#E3B873" id="svg_2" class=""/><rect x="81.9995002746582" y="13.019760847091675" width="32" height="1.5433399677276611" rx="0.7716720104217529" fill="#E3B873" id="svg_3" class=""/><path d="M73.8505002746582,8.973260572433475 L49.7301002746582,0.03706057243347516 C49.4216002746582,-0.07693942756652916 49.07880027465821,0.08086057243347256 48.96500027465821,0.3895605724334743 C48.9648002746582,0.38986057243347005 48.9648002746582,0.3900605724334696 48.96450027465821,0.39036057243347244 L46.2944002746582,7.658460572433469 C46.1809002746582,7.967260572433474 46.33910027465821,8.309760572433468 46.6479002746582,8.42326057243347 H46.6484002746582 L49.444300274658204,9.449860572433472 L48.828300274658204,11.128160572433472 C48.71500027465821,11.43696057243347 48.873300274658206,11.77896057243347 49.18200027465821,11.892460572433471 L54.774800274658205,13.945760572433471 L54.3638002746582,15.064660572433475 C53.990300274658196,16.06666057243347 54.3388002746582,17.194760572433474 55.21290027465821,17.810960572433473 V20.85116057243347 H47.196900274658205 C46.8089002746582,19.96416057243347 46.0149002746582,19.32006057243347 45.0666002746582,19.12356057243347 V17.87256057243347 C45.0666002746582,17.543460572433474 44.800100274658206,17.276760572433474 44.4708002746582,17.276760572433474 H42.068900274658205 C41.7399002746582,17.276760572433474 41.47310027465821,17.543460572433474 41.47310027465821,17.87256057243347 V27.404260572433472 C41.47310027465821,27.733560572433475 41.7399002746582,28.00006057243347 42.068900274658205,28.00006057243347 H44.4708002746582 C44.800100274658206,28.00006057243347 45.0666002746582,27.733560572433475 45.0666002746582,27.404260572433472 V26.153460572433474 C46.0149002746582,25.956660572433478 46.8089002746582,25.312860572433465 47.196900274658205,24.42556057243347 H55.21290027465821 V25.021360572433473 C55.21290027465821,26.008460572433478 56.01290027465821,26.80876057243347 57.000000274658206,26.80876057243347 C57.9870002746582,26.80876057243347 58.78730027465821,26.008460572433478 58.78730027465821,25.021360572433473 V18.42176057243347 C59.3285002746582,18.153260572433474 59.74750027465821,17.687460572433473 59.955500274658206,17.11996057243347 L60.36650027465821,16.00116057243347 L65.39950027465821,17.848060572433475 C65.4655002746582,17.87226057243347 65.5345002746582,17.88456057243347 65.6045002746582,17.88456057243347 C65.8545002746582,17.88456057243347 66.0785002746582,17.728760572433472 66.16450027465821,17.49426057243347 L66.38750027465821,16.88596057243347 C68.3265002746582,17.25076057243347 70.1935002746582,15.974960572433474 70.55750027465821,14.036560572433473 C70.6925002746582,13.320260572433469 70.6055002746582,12.579960572433471 70.30750027465821,11.914960572433472 L73.9185002746582,10.060560572433474 C74.2115002746582,9.910560572433475 74.3275002746582,9.551560572433473 74.1775002746582,9.258760572433474 C74.1095002746582,9.125760572433471 73.9935002746582,9.023260572433472 73.8535002746582,8.971560572433475 L73.8505002746582,8.973260572433475 zM56.40420027465821,18.353760572433472 L56.8975002746582,18.532560572433475 C57.122000274658205,18.61306057243347 57.35750027465821,18.659260572433475 57.5957002746582,18.66956057243347 V20.85116057243347 H56.40420027465821 V18.353760572433472 zM43.8753002746582,26.80876057243347 H42.6647002746582 V18.468260572433472 H43.8753002746582 V26.80876057243347 zM46.258100274658204,23.23426057243347 C46.2571002746582,23.99136057243347 45.78010027465821,24.66616057243347 45.0666002746582,24.91966057243347 V20.35736057243347 C45.78010027465821,20.610660572433474 46.2571002746582,21.285460572433472 46.258100274658204,22.042760572433473 V23.23426057243347 zM47.4682002746582,22.042760572433473 H57.5957002746582 V23.23426057243347 H47.4682002746582 V22.042760572433473 zM57.000000274658206,25.617160572433477 C56.67090027465821,25.617160572433477 56.40420027465821,25.350360572433473 56.40420027465821,25.021360572433473 V24.42556057243347 H57.5957002746582 V25.021360572433473 C57.5957002746582,25.350360572433473 57.3290002746582,25.617160572433477 57.000000274658206,25.617160572433477 zM59.2485002746582,15.59086057243347 L58.837300274658205,16.70966057243347 C58.6103002746582,17.32676057243347 57.92600027465821,17.64326057243347 57.3085002746582,17.416760572433475 L56.187900274658205,17.00626057243347 C55.5704002746582,16.77946057243347 55.253400274658205,16.09496057243347 55.4801002746582,15.477160572433469 C55.4801002746582,15.477160572433469 55.4801002746582,15.477160572433469 55.4801002746582,15.476860572433473 L55.89140027465821,14.358860572433471 L58.91110027465821,15.46736057243347 L59.2485002746582,15.59086057243347 zM65.2515002746582,16.52616057243347 L50.1518002746582,10.981360572433474 L50.5631002746582,9.862560572433473 L59.5105002746582,13.148260572433472 C59.7225002746582,13.22526057243347 59.9595002746582,13.177060572433469 60.1245002746582,13.022960572433469 L61.7965002746582,11.44916057243347 L66.4835002746582,13.170760572433473 L65.2515002746582,16.52616057243347 zM69.2795002746582,14.19786057243347 C68.90250027465821,15.215660572433471 67.8865002746582,15.851660572433474 66.8065002746582,15.74686057243347 L67.7275002746582,13.239260572433473 L69.2305002746582,12.464960572433469 C69.4655002746582,13.015460572433469 69.4835002746582,13.635060572433474 69.2795002746582,14.19786057243347 zM67.26850027465821,12.137960572433471 C67.2375002746582,12.140660572433475 67.2055002746582,12.146160572433473 67.1755002746582,12.154460572433472 L61.86350027465821,10.20406057243347 C61.651500274658204,10.12636057243347 61.41450027465821,10.174560572433471 61.2495002746582,10.329160572433473 L59.5765002746582,11.903160572433471 L47.61820027465821,7.511960572433473 L49.87680027465821,1.3621605724334742 L72.16750027465821,9.62036057243347 L67.26850027465821,12.137960572433471 z" fill="#E3B873" id="svg_4" class=""/><path d="M53.1287002746582,7.911160572433474 L52.60330027465821,9.331060572433472 M55.4185002746582,8.75116057243347 L54.893000274658206,10.171060572433468 M57.64050027465821,9.577660572433473 L57.1150002746582,10.997560572433471 " stroke="#E3B873" stroke-linecap="round" id="svg_5" class=""/></g></svg>